<svg width="4793" height="3232" viewBox="0 0 4793 3232" fill="none" xmlns="http://www.w3.org/2000/svg">
<path d="M4797.5 1038C4470.5 508.5 3655.28 352.67 3250.6 660.511C2752.5 1039.42 2457.07 2066.68 1708.21 1885.22C959.354 1703.76 745.626 1104.9 437.685 974.436C370.929 914.95 189.933 785.681 0 744.491" stroke="#F60DC9" stroke-width="15"/>
<path d="M4797.29 1036.98C4465.81 494.638 3668.4 312.429 3250.61 631.919C2741.53 1020.97 2473.35 2120.19 1708.21 1945.53C953.239 1771.23 745.627 1108.57 437.687 968.632C370.93 904.828 190.077 756.08 0.144531 711.899" stroke="#EC17C9" stroke-width="8.57"/>
<path d="M4797.07 1036.18C4461.12 480.99 3681.51 272.403 3250.6 603.541C2730.55 1002.74 2489.63 2173.92 1708.21 2006.05C947.121 1838.91 745.625 1112.45 437.684 963.042C370.928 894.92 190.218 726.693 0.285156 679.522" stroke="#E122C9" stroke-width="8.14"/>
<path d="M4796.86 1035.56C4456.43 467.526 3694.62 232.561 3250.61 575.347C2719.57 984.686 2505.91 2227.83 1708.21 2066.76C941.007 1906.78 745.627 1116.52 437.686 957.636C370.93 885.196 190.362 697.49 0.429688 647.33" stroke="#D72CC9" stroke-width="7.71"/>
<path d="M4796.64 1035.09C4451.74 454.222 3707.73 192.879 3250.6 547.313C2708.59 966.794 2522.19 2281.91 1708.21 2127.63C934.889 1974.8 745.625 1120.74 437.684 952.39C370.927 875.632 190.503 668.447 0.570312 615.297" stroke="#CC36C9" stroke-width="7.29"/>
<path d="M4796.43 1034.78C4447.05 441.061 3720.85 153.34 3250.61 519.423C2697.62 949.046 2538.48 2336.12 1708.21 2188.64C928.774 2042.97 745.626 1125.11 437.685 947.288C370.929 866.211 190.647 639.548 0.714844 583.407" stroke="#C240C9" stroke-width="6.86"/>
<path d="M4796.21 1034.58C4442.36 428.025 3733.96 113.925 3250.6 491.657C2686.64 931.423 2554.76 2390.46 1708.21 2249.78C922.656 2111.26 745.624 1129.6 437.683 942.31C370.927 856.915 190.788 610.772 0.855469 551.642" stroke="#B74BC9" stroke-width="6.43"/>
<path d="M4796 1034.5C4437.67 415.099 3747.07 74.6204 3250.6 464C2675.67 913.909 2571.04 2444.91 1708.21 2311.02C916.542 2179.66 745.626 1134.21 437.685 937.441C370.929 847.729 190.933 582.107 1 519.987" stroke="#AD55C9" stroke-width="6"/>
<path d="M4795.79 1034.51C4432.98 402.268 3760.19 35.4111 3250.61 436.439C2664.69 896.491 2587.33 2499.46 1708.21 2372.37C910.427 2248.16 745.627 1138.9 437.687 932.668C370.93 838.638 191.077 553.537 1.14453 488.427" stroke="#A25FC9" stroke-width="5.57"/>
<path d="M4795.57 1034.61C4428.29 389.525 3773.3 -3.70961 3250.6 408.967C2653.71 879.162 2603.61 2554.09 1708.21 2433.8C904.309 2316.75 745.625 1143.69 437.684 927.984C370.928 829.635 191.218 525.056 1.28516 456.956" stroke="#986AC9" stroke-width="5.14"/>
<path d="M4795.36 1034.79C4423.6 376.86 3786.41 -42.7531 3250.61 381.572C2642.74 861.909 2619.89 2608.81 1708.21 2495.3C898.195 2385.41 745.627 1148.55 437.686 923.377C370.93 820.71 191.362 496.652 1.42969 425.561" stroke="#8D74C9" stroke-width="4.71"/>
<path d="M4795.14 1035.04C4418.91 364.262 3799.52 -81.7293 3250.6 354.244C2631.76 844.724 2636.17 2663.58 1708.21 2556.88C892.076 2454.14 745.625 1153.49 437.684 918.837C370.927 811.852 191.503 468.315 1.57031 394.235" stroke="#837EC8" stroke-width="4.29"/>
<path d="M4794.93 1035.34C4414.22 351.728 3812.64 -120.641 3250.61 326.981C2620.79 827.603 2652.46 2718.43 1708.21 2618.52C885.962 2522.94 745.626 1158.48 437.685 914.362C370.929 803.059 191.647 440.042 1.71484 362.972" stroke="#7888C8" stroke-width="3.86"/>
<path d="M4794.71 1035.71C4409.52 339.25 3825.75 -159.497 3250.6 299.773C2609.81 810.538 2668.74 2773.33 1708.21 2680.21C879.844 2591.79 745.624 1163.53 437.683 909.942C370.927 794.321 191.788 411.826 1.85547 331.765" stroke="#6E93C8" stroke-width="3.43"/>
<path d="M4794.5 1036.12C4404.84 326.821 3838.86 -198.305 3250.6 272.614C2598.83 793.522 2685.02 2828.27 1708.21 2741.95C873.729 2660.69 745.626 1168.63 437.685 905.571C370.929 785.632 191.933 383.658 2 300.607" stroke="#639DC8" stroke-width="3"/>
<path d="M4794.14 1045.96C4400 323.815 3851.83 -227.689 3250.46 254.878C2587.71 785.929 2701.16 2892.64 1708.07 2813.12C867.471 2739.01 745.483 1183.15 437.542 910.623C370.786 786.366 191.933 364.913 2 278.872" stroke="#59A7C8" stroke-width="2.57"/>
<path d="M4787.79 1055.81C4389.17 320.817 3858.8 -257.065 3244.32 237.15C2570.6 778.344 2711.3 2957.02 1701.92 2884.29C855.212 2817.34 739.34 1197.69 431.399 915.683C364.643 787.108 185.933 346.176 -4 257.146" stroke="#4EB2C8" stroke-width="2.14"/>
<path d="M4797 1057.72C4393.44 309.865 3880.28 -294.411 3251.95 211.466C2566.46 762.816 2734.62 3013.52 1707.76 2947.58C853.945 2887.78 744.061 1204.28 435.762 912.804C368.928 779.907 190.153 319.485 0 227.462" stroke="#44BCC8" stroke-width="1.71"/>
<path d="M4794 1072.66C4386.1 311.947 3890.93 -318.721 3249.7 198.815C2553.45 760.319 2748.83 3083.03 1706.04 3023.89C846.388 2971.25 742.664 1223.91 434.47 922.956C367.659 785.738 189.088 305.827 -1 210.812" stroke="#39C6C8" stroke-width="1.29"/>
<path d="M4794 1093.6C4381.67 320.052 3904.39 -336.991 3250.12 192.19C2542.98 763.835 2765.62 3158.5 1706.66 3106.15C841.012 3060.67 743.421 1249.54 435.269 939.117C368.467 797.581 190.063 298.193 0 200.189" stroke="#2FD0C8" stroke-width="0.86"/>
<path d="M4795 1156.55C4378.08 370.179 3918.47 -313.224 3250.9 227.591C2532.57 809.362 2782.55 3275.93 1707.01 3230.38C834.985 3192.05 743.488 1317.17 435.249 997.285C368.428 851.435 190.117 332.582 0 231.59" stroke="#24DBC8" stroke-width="0.43"/>
</svg>
