<svg width="2822" height="2295" viewBox="0 0 2822 2295" fill="none" xmlns="http://www.w3.org/2000/svg">
<path d="M-36 1635.47C11.5612 1625.14 120.397 1568.77 175.253 1425.97C243.821 1247.47 430.369 957.472 666.326 1364.47C902.284 1771.47 1032.36 2258.47 1772 2288.97C2363.71 2313.37 2706.25 1863.47 2803.56 1635.47" stroke="#E50EC0" stroke-width="10"/>
<path d="M17.4453 477.472C65.0065 467.139 173.843 410.772 228.698 267.972C297.267 89.4719 483.814 -200.528 719.772 206.472C955.729 613.472 1085.81 1100.47 1825.44 1130.97C2417.15 1155.37 2759.69 705.472 2857 477.472" stroke="#1AE5C8"/>
<path d="M-33.4531 1580.33C14.1081 1570 122.944 1513.63 177.799 1370.83C246.368 1192.33 432.916 902.329 668.873 1309.33C904.831 1716.33 1034.91 2203.33 1774.55 2233.83C2366.25 2258.23 2708.8 1808.33 2806.1 1580.33" stroke="#DB18C0" stroke-width="9.57143"/>
<path d="M-30.9141 1525.19C16.6472 1514.85 125.483 1458.49 180.338 1315.69C248.907 1137.19 435.455 847.187 671.412 1254.19C907.37 1661.19 1037.45 2148.19 1777.08 2178.69C2368.79 2203.09 2711.34 1753.19 2808.64 1525.19" stroke="#D222C1" stroke-width="9.14286"/>
<path d="M-28.3672 1470.04C19.194 1459.71 128.03 1403.34 182.885 1260.54C251.454 1082.04 438.002 792.044 673.959 1199.04C909.917 1606.04 1040 2093.04 1779.63 2123.54C2371.34 2147.94 2713.88 1698.04 2811.19 1470.04" stroke="#C82DC1" stroke-width="8.71429"/>
<path d="M-25.8203 1414.9C21.7409 1404.57 130.577 1348.2 185.432 1205.4C254.001 1026.9 440.549 736.9 676.506 1143.9C912.464 1550.9 1042.54 2037.9 1782.18 2068.4C2373.89 2092.8 2716.43 1642.9 2813.74 1414.9" stroke="#BE37C2" stroke-width="8.28571"/>
<path d="M-23.2734 1359.76C24.2878 1349.42 133.124 1293.06 187.979 1150.26C256.548 971.757 443.096 681.757 679.053 1088.76C915.01 1495.76 1045.09 1982.76 1784.73 2013.26C2376.43 2037.66 2718.98 1587.76 2816.28 1359.76" stroke="#B541C2" stroke-width="7.85714"/>
<path d="M-20.7344 1304.61C26.8269 1294.28 135.663 1237.91 190.518 1095.11C259.087 916.614 445.635 626.614 681.592 1033.61C917.55 1440.61 1047.63 1927.62 1787.26 1958.12C2378.97 1982.52 2721.51 1532.61 2818.82 1304.61" stroke="#AB4BC2" stroke-width="7.42857"/>
<path d="M-18.1875 1249.47C29.3737 1239.14 138.21 1182.77 193.065 1039.97C261.634 861.472 448.181 571.472 684.139 978.472C920.096 1385.47 1050.18 1872.47 1789.81 1902.97C2381.52 1927.37 2724.06 1477.47 2821.37 1249.47" stroke="#A156C3" stroke-width="7"/>
<path d="M-15.6406 1194.33C31.9206 1184 140.757 1127.63 195.612 984.829C264.181 806.329 450.728 516.329 686.686 923.329C922.643 1330.33 1052.72 1817.33 1792.36 1847.83C2384.07 1872.23 2726.61 1422.33 2823.92 1194.33" stroke="#9860C3" stroke-width="6.57143"/>
<path d="M-13.1016 1139.19C34.4597 1128.85 143.296 1072.49 198.151 929.687C266.72 751.187 453.267 461.187 689.225 868.187C925.182 1275.19 1055.26 1762.19 1794.9 1792.69C2386.61 1817.09 2729.15 1367.19 2826.46 1139.19" stroke="#8E6AC3" stroke-width="6.14286"/>
<path d="M-10.5547 1084.04C37.0065 1073.71 145.843 1017.34 200.698 874.544C269.267 696.044 455.814 406.044 691.772 813.044C927.729 1220.04 1057.81 1707.04 1797.44 1737.54C2389.15 1761.94 2731.69 1312.04 2829 1084.04" stroke="#8474C4" stroke-width="5.71429"/>
<path d="M-8 1028.9C39.5612 1018.57 148.397 962.2 203.253 819.4C271.821 640.9 458.369 350.9 694.326 757.9C930.284 1164.9 1060.36 1651.9 1800 1682.4C2391.71 1706.8 2734.25 1256.9 2831.56 1028.9" stroke="#7B7FC4" stroke-width="5.28571"/>
<path d="M-5.46094 973.757C42.1003 963.424 150.937 907.057 205.792 764.257C274.36 585.757 460.908 295.757 696.865 702.757C932.823 1109.76 1062.9 1596.76 1802.54 1627.26C2394.25 1651.66 2736.79 1201.76 2834.1 973.757" stroke="#7189C5" stroke-width="4.85714"/>
<path d="M-2.91406 918.614C44.6472 908.281 153.483 851.914 208.338 709.114C276.907 530.614 463.455 240.614 699.412 647.614C935.37 1054.61 1065.45 1541.62 1805.08 1572.12C2396.79 1596.52 2739.34 1146.61 2836.64 918.614" stroke="#6793C5" stroke-width="4.42857"/>
<path d="M-0.367188 863.472C47.194 853.139 156.03 796.772 210.885 653.972C279.454 475.472 466.002 185.472 701.959 592.472C937.917 999.472 1068 1486.47 1807.63 1516.97C2399.34 1541.37 2741.88 1091.47 2839.19 863.472" stroke="#5E9DC5" stroke-width="4"/>
<path d="M2.17969 808.329C49.7409 797.996 158.577 741.629 213.432 598.829C282.001 420.329 468.549 130.329 704.506 537.329C940.464 944.329 1070.54 1431.33 1810.18 1461.83C2401.89 1486.23 2744.43 1036.33 2841.74 808.329" stroke="#54A8C6" stroke-width="3.57143"/>
<path d="M4.71875 753.187C52.28 742.853 161.116 686.487 215.971 543.687C284.54 365.187 471.088 75.1867 707.045 482.187C943.003 889.187 1073.08 1376.19 1812.72 1406.69C2404.43 1431.09 2746.97 981.187 2844.28 753.187" stroke="#4AB2C6" stroke-width="3.14286"/>
<path d="M7.26562 698.044C54.8269 687.711 163.663 631.344 218.518 488.544C287.087 310.044 473.635 20.0442 709.592 427.044C945.55 834.044 1075.63 1321.04 1815.26 1351.54C2406.97 1375.94 2749.51 926.044 2846.82 698.044" stroke="#41BCC6" stroke-width="2.71429"/>
<path d="M9.8125 642.9C57.3737 632.566 166.21 576.2 221.065 433.4C289.634 254.9 476.181 -35.1004 712.139 371.9C948.096 778.9 1078.18 1265.9 1817.81 1296.4C2409.52 1320.8 2752.06 870.9 2849.37 642.9" stroke="#37C6C7" stroke-width="2.28571"/>
<path d="M12.3516 587.757C59.9128 577.424 168.749 521.057 223.604 378.257C292.173 199.757 478.721 -90.243 714.678 316.757C950.635 723.757 1080.71 1210.76 1820.35 1241.26C2412.06 1265.66 2754.6 815.757 2851.91 587.757" stroke="#2DD1C7" stroke-width="1.85714"/>
<path d="M14.8984 532.614C62.4597 522.281 171.296 465.914 226.151 323.114C294.72 144.614 481.267 -145.386 717.225 261.614C953.182 668.614 1083.26 1155.62 1822.9 1186.12C2414.61 1210.52 2757.15 760.615 2854.46 532.614" stroke="#24DBC8" stroke-width="1.42857"/>
</svg>
